<?xml version="1.0" encoding="UTF-8" standalone="no"?>
<svg
   version="1.0"
   width="280"
   height="320"
   viewBox="0 0 224.38356 256"
   preserveAspectRatio="xMidYMid"
   id="svg2"
   sodipodi:version="0.32"
   inkscape:version="1.4.2 (f4327f4, 2025-05-13)"
   sodipodi:docname="GCC.svg"
   inkscape:output_extension="org.inkscape.output.svg.inkscape"
   xmlns:inkscape="http://www.inkscape.org/namespaces/inkscape"
   xmlns:sodipodi="http://sodipodi.sourceforge.net/DTD/sodipodi-0.dtd"
   xmlns="http://www.w3.org/2000/svg"
   xmlns:svg="http://www.w3.org/2000/svg"
   xmlns:rdf="http://www.w3.org/1999/02/22-rdf-syntax-ns#"
   xmlns:cc="http://creativecommons.org/ns#"
   xmlns:dc="http://purl.org/dc/elements/1.1/">
  <defs
     id="defs33" />
  <sodipodi:namedview
     inkscape:window-height="991"
     inkscape:window-width="1920"
     inkscape:pageshadow="2"
     inkscape:pageopacity="0.0"
     borderopacity="1.0"
     bordercolor="#666666"
     pagecolor="#ffffff"
     id="base"
     inkscape:zoom="1.03"
     inkscape:cx="473.30097"
     inkscape:cy="190.7767"
     inkscape:window-x="-9"
     inkscape:window-y="-9"
     inkscape:current-layer="layer1"
     width="584px"
     height="688.75px"
     inkscape:showpageshadow="2"
     inkscape:pagecheckerboard="0"
     inkscape:deskcolor="#d1d1d1"
     inkscape:window-maximized="1" />
  <metadata
     id="metadata4">
Created by potrace 1.7, written by Peter Selinger 2001-2005
<rdf:RDF>
  <cc:Work
     rdf:about="">
    <dc:format>image/svg+xml</dc:format>
    <dc:type
       rdf:resource="http://purl.org/dc/dcmitype/StillImage" />
  </cc:Work>
</rdf:RDF>
</metadata>
  <g
     inkscape:groupmode="layer"
     id="layer1"
     inkscape:label="Colors"
     style="display:inline">
    <path
       style="display:inline;fill:#ffcfab;fill-opacity:1;fill-rule:evenodd;stroke:#000000;stroke-width:1.9261;stroke-linecap:butt;stroke-linejoin:miter;stroke-miterlimit:4;stroke-dasharray:none;stroke-opacity:1"
       d="m 146.45131,26.780367 c -3.00882,4.600975 -6.01768,9.201955 -9.0266,13.802924 14.26456,16.557166 28.5291,33.114337 42.79356,49.671491 2.0083,-8.217386 3.47792,0.74658 5.11966,4.220692 4.39617,9.940466 5.08064,21.017576 6.45148,31.653726 2.59473,20.13039 1.74004,31.91298 -0.10661,42.89778 -5.9838,35.59489 -27.21002,56.3706 -47.48317,68.33231 -6.93483,4.09184 -13.6094,6.9525 -23.39932,8.28831 -10.08781,1.3764 -19.97172,0.83157 -30.09877,-1.14163 C 82.341,242.87679 73.932084,240.13131 66.210191,236.59259 53.898128,230.95018 43.735394,221.18402 35.780638,210.47033 28.08483,200.1055 23.23067,187.7373 19.544013,175.34366 12.838207,152.8003 10.002984,128.79346 15.351909,105.60249 18.686081,91.146779 23.49354,76.83145 30.068266,63.631837 37.045387,49.624458 46.852121,36.938256 58.723025,26.41901 65.851736,20.101993 73.600737,14.281038 82.325024,10.76729 88.724613,8.1898046 95.498947,7.6090517 102.49231,8.0702386 c 6.9146,0.4559968 13.51501,1.2306676 20.10243,3.5733554 8.96423,3.187877 17.41198,8.174295 23.85657,15.136773 z"
       id="path1335"
       sodipodi:nodetypes="ccccssssssssssssssc" />
    <path
       style="fill:#f39105;fill-opacity:1;fill-rule:evenodd;stroke:#000000;stroke-width:0.463522px;stroke-linecap:butt;stroke-linejoin:miter;stroke-opacity:1"
       d="m 80.053549,86.81429 -4.967072,-12.609085 5.34885,-2.674453 10.698994,-1.52865 19.868499,-24.453438 11.08027,1.528488 7.25954,-3.821023 5.34941,-1.146233 -8.40577,18.34009 -16.42979,1.910618 z"
       id="path2211" />
    <path
       style="display:inline;fill:#ffcfab;fill-opacity:1;fill-rule:evenodd;stroke:#000000;stroke-width:0.463522px;stroke-linecap:butt;stroke-linejoin:miter;stroke-opacity:1"
       d="m 151.50375,35.614398 8.78831,11.080351 2.29245,3.821201 -16.81216,-5.73148 1.91063,-5.34919 z"
       id="path3100" />
    <path
       style="display:inline;fill:#f39a05;fill-opacity:1;fill-rule:evenodd;stroke:#000000;stroke-width:0.463522px;stroke-linecap:butt;stroke-linejoin:miter;stroke-opacity:1"
       d="m 145.00851,44.020321 8.40584,4.585039 8.7878,2.674493 -11.84472,6.495634 -8.78767,-0.764292 -0.76431,-6.113281 z"
       id="path3976" />
    <path
       style="display:inline;fill:#ab9a7e;fill-opacity:1;fill-rule:evenodd;stroke:#000000;stroke-width:0.463522px;stroke-linecap:butt;stroke-linejoin:miter;stroke-opacity:1"
       d="m 80.435327,87.578133 6.113905,9.934413 -6.113905,15.665444 14.519678,2.6749 3.056432,3.05656 9.170163,14.13713 29.03876,-15.2835 8.6447,2.38818 9.31362,-2.77007 -6.4957,-6.87766 1.14631,-1.91066 3.05695,-1.91013 1.52811,4.96719 2.67447,6.11315 7.25956,8.7883 1.91063,-1.14629 0.38198,-5.73143 6.74748,-1.18789 2.38135,-1.8504 5.96083,-0.72245 1.53105,-7.51079 -4.39367,-18.149128 v -7.64192 l 6.87758,-1.146252 6.11329,4.585094 8.78782,2.292503 3.43877,-0.764294 -10.31601,-12.990921 -6.34109,-6.492515 -3.5934,-2.295254 -6.87754,-4.585101 -14.13721,0.763938 -11.08033,2.674904 -9.55264,4.585071 -5.73081,-0.764304 -7.2601,-3.438936 -2.29245,-3.438762 -14.90109,-0.381911 z"
       id="path4852"
       sodipodi:nodetypes="ccccccccccccccccccccccccccccccccccccccc" />
    <path
       style="display:inline;fill:#ffffff;fill-opacity:1;fill-rule:evenodd;stroke:#000000;stroke-width:0.463522px;stroke-linecap:butt;stroke-linejoin:miter;stroke-opacity:1"
       d="m 151.88624,106.30042 1.91014,4.96743 -1.14633,3.05645 -5.73136,-3.43878 1.52865,-2.67453 z"
       id="path5728" />
    <path
       style="fill:#ffffff;fill-opacity:1;fill-rule:evenodd;stroke:#000000;stroke-width:0.463522px;stroke-linecap:butt;stroke-linejoin:miter;stroke-opacity:1"
       d="m 160.67391,85.667995 6.11333,-5.34938 3.43886,-0.382029 1.14625,1.910158 -5.34903,5.731389 -3.05674,1.146309 z"
       id="path6604" />
    <path
       style="fill:#ffffff;fill-opacity:1;fill-rule:evenodd;stroke:#000000;stroke-width:0.463522px;stroke-linecap:butt;stroke-linejoin:miter;stroke-opacity:1"
       d="m 171.73141,59.16867 -18.69897,4.720191 -12.22699,4.966914 -10.69851,-3.056332 -3.82067,-4.585101 9.93409,-22.543255 9.30793,-11.527587 6.09793,-2.414736 6.75522,1.333431 6.99861,10.271571 7.33412,4.911957 -0.84478,1.485759 -10.81343,-3.678323 -9.55221,-4.202954 -9.17016,14.137109 -1.91016,4.967409 1.52823,4.585143 24.83558,-4.203162 2.65161,2.20366 z"
       id="path7479"
       sodipodi:nodetypes="cccccccccccccccccccc" />
    <path
       style="fill:#ffffff;fill-opacity:1;fill-rule:evenodd;stroke:#000000;stroke-width:0.463522px;stroke-linecap:butt;stroke-linejoin:miter;stroke-opacity:1"
       d="m 179.01419,61.97828 4.37773,5.603298 2.7622,0.07781 10.21015,11.356991 2.53938,3.079686 4.56429,-2.923757 5.34893,-11.844666 2.96791,-9.417011 0.40528,-7.888811 -2.45044,-2.944665 h -8.5643 l -6.4957,1.528208 c 0,0 -5.34895,2.674493 -3.82072,2.674493 1.52825,0 8.78782,2.292547 8.78782,2.292547 l 3.0569,2.292496 0.76432,3.438858 -4.20321,8.405776 -1.91015,1.910588 -8.78819,-5.731257 -2.67448,-1.910581 -2.67487,-0.382027 z"
       id="path8354"
       sodipodi:nodetypes="ccccccccccccsccccccccc" />
    <path
       style="fill:#ffffff;fill-opacity:1;fill-rule:evenodd;stroke:#9e0000;stroke-width:0.463522px;stroke-linecap:butt;stroke-linejoin:miter;stroke-opacity:1"
       d="m 175.4452,106.65003 c -0.11821,-0.87812 -6.01146,0 -6.01146,0 0,0 -1.02996,3.5123 0.47281,3.5123 1.50289,0 5.65686,-2.63431 5.53865,-3.5123 z"
       id="path5093"
       sodipodi:nodetypes="cczz" />
  </g>
  <g
     inkscape:groupmode="layer"
     id="layer2"
     inkscape:label="Drawing"
     style="display:inline">
    <g
       transform="matrix(0.12685645,0,0,-0.12685645,4.0181427,255.31469)"
       id="g6"
       style="fill:#000000;stroke:none">
      <g
         id="g8">
        <path
           style="fill:#000000;fill-opacity:1"
           d="m 1412.6868,1338.2674 c 6.7524,10.8193 23.2943,9.4585 50.3132,-7.2674 22,-13 51,-15.6755 82.0649,-17.8053 50.8806,-3.4883 46.8186,4.0782 22.9351,28.1431 l -28.7769,25.8157 c 0,0 10.5878,-6.1299 28.1534,10.1055 C 1590.8909,1398.9927 1636,1499 1644,1571 c 9,73 -3,84 -81,75 -32,-4 -70.5324,-13.4027 -86.5324,-23.4027 0,0 -22.8511,-11.4351 -19.3511,-17.9351 3.5,-6.5 33.8835,-9.6622 33.8835,-9.6622 57,-9 72.6107,-27.8569 72.6107,-48.8569 0,-22 -29.6107,-76.1431 -43.6107,-76.1431 -5,0 -23,14 -40,30 -34,33 -52.2977,37.3245 -85.1946,27.5457 -18.4732,5.0628 -45.2898,7.7233 -66.9482,20.1734 -5.3074,3.0509 -1.9352,7.3395 -12.4413,20.5405 C 1296.431,1592.1143 1282,1590 1262,1585 c -25,-6 -26,-6 -7,8 19,14 18,16 -24,71 l -42,57 50,-25 c 51,-26 95,-33 105,-17 4,5 -10,18 -31,28 -20,10 -44,33 -53,50 -10,18 -23,39 -29,47 -15,17 -67.3278,26.1533 -95.4636,15.5122 -28.6878,-10.8499 -46.4737,-40.0111 -69.4838,-70.1568 -19.4268,-25.451 -30.2491,-44.6593 -39.3338,-60.1213 C 1008.0217,1693.6518 976,1680 963,1668 c -22,-20 -27,-21 -70,-10 -43,12 -48,11 -71,-10 -13,-13 -49,-58 -80,-100 -30,-43 -58,-78 -61,-79 -3,0 -24,-2 -46,-4 -22,-2 -52,-8 -67,-14 -24,-9 -26,-13 -19,-39 5,-15 27,-61 50,-101 l 41,-72 -25,-60 c -14,-33 -23,-64 -20,-68 3,-5 32,-12 65,-16 l 60,-7 46,-69 c 43,-65 50.67772,-68.64009 66,-61 5.15501,2.57043 30,20 63,36 33,17 78,42 100,57 31.1298,20.5457 62.6472,27.5244 79.3482,21.1776 10.1238,-3.8472 14.8032,-12.591 10.6518,-26.1776 -8.7294,-28.0588 -8.3308,-45.5189 -4.4143,-63.72196 C 1087.4046,974.98882 1096.2,971.65881 1109,963 c 44.1295,-27.11752 61,-29 62,0 v 22 l 11,-23 c 16,-33 42,-24 46,17 3,24 -3,40 -19,57 -12,13 -18.247,30.0239 -13.247,30.0239 10,0 44.247,-46.0239 44.247,-58.0239 0,-4 6,-8 14,-8 15,0 26,21 26,50 0,11.0508 29.8385,17.2803 57.6812,27.1474 7.4306,2.6333 7.377,6.363 14.4868,11.2286 13.4373,-2.8159 9.0169,-3.0001 19.0404,-2.2877 14.9104,1.0597 21.5581,5.2591 25.7916,11.9117 21,34 24,77 8,115 -8,20 -15,61.5021 -14,79.5021 0,0 0.9547,11.8911 5.3533,23.6502 M 1280,1184 c 0,20 -4,20 -40,1 -17,-9 -30,-23 -30,-32 0,-23 29,-53 51,-53 10,0 58.1199,-9.0012 71.2364,-9.1443 -0.283,-3.8272 -5.8146,-7.1592 -9.4651,-8.3255 -15.1496,-4.8405 -39.9072,-2.1419 -48.7713,-0.5302 -16,2 -18,-3 -17,-32 2,-19 0,-28 -4,-20 -3,8 -17,26 -32,40 -16,15 -27,39 -29,60 -5,47 -25,83 -65,117 -42,35 -58,63 -50,91 4,16 13,22 32,22 34,1 98,30 139,64 54,47 36,49 -28,4 -53,-37 -68,-43 -128,-46 l -67,-5 33,34 c 17,18 32,36 32,40 0,21 92,60 161,68 98,11 103,10 109,-23 7,-38 29,-47 23,-9 -4,27 -4,27 11,9 9,-11 16,-31 16,-45 0,-14 3,-36 6,-48 5,-17 0,-22 -26,-28 l -33,-7 7,-59 c 3,-32 13,-75 21,-96 15,-35 12,-97 -5,-108 -4,-3 -29,-2 -54,1 -41,6 -46,9 -46,33 m -75,665 c 9,-4 25,-24 35,-45 11,-21 30,-45 42,-53 12.2607,-8.7116 44.0886,-21.1296 42.2589,-22.8496 -3.8412,-3.6107 -61.682,14.5291 -98.2589,34.8496 -28,16 -57,27 -64,24 -8,-2 -31,-31 -53,-65 -44,-68 -52,-121 -20,-132 19,-6 159.985,27.3629 183,31 16.6514,2.6314 38,-14 38,-26 0,-4 -30,-10 -66,-13 -43,-4 -82,-15 -111,-32 -52,-29 -82,-31 -123,-10 -41,21 -39,43 20,161 65,133 111,172 175,148 z m -5,-121 c 43,-65 43,-62 13,-54 -44,13 -78.4821,33.3765 -86.765,38.8585 7.1535,15.741 24.765,52.1415 36.765,52.1415 7,0 23,-17 37,-37 z m -190,-17 c 0,-2 -11,-28 -25,-59 -23,-49 -29,-55 -63,-61 -20,-3 -50,-6 -67,-6 -24,0 -47,-16 -110,-78 -44,-43 -94,-88 -111,-100 l -31,-21 -18,40 c -22,49 -16,57 53,63 57,5 63,9 109,76 17,25 48,65 70,89 34,39 41,43 60,32 32,-17 68,-13 94,9 22,18 39,25 39,16 z m 179,-49 44,-14 -34,-17 c -18,-9 -49,-19 -69,-22 -45,-7 -54,7 -34,54 8.2545,20.9537 13.7935,25.7507 18.4239,33.3664 C 1119.6269,1649.3732 1165,1625 1189,1617 Z m 445.4542,-21.3511 C 1636.4542,1560.6489 1622,1515 1602,1466 c -31,-78 -61.8569,-108.3245 -79.8569,-76.3245 -10.3996,18.1993 -34.5463,54.6152 -74.86,87.7076 -3.0295,2.4868 -6.9456,6.5072 -15.5729,8.4931 -12.5936,2.8988 -16.0836,-2.05 -19.3591,0.4749 C 1395.4676,1508.9485 1396,1519 1418,1520 c 12,0 30,-9 40,-21 9,-11 29,-27 43,-34 24,-13 28,-12 49,10 16,17 25.0715,41.2174 26.6622,71.8569 C 1578.2271,1577 1567,1594 1516,1605 c -15,3 -44.6355,2.6106 -40.6355,5.6106 9,9 95.6355,27.3894 124.6355,26.3894 23,-2 33.5191,0.3893 34.4542,-41.3511 z M 1006,1476 c 19,-9 41,-16 49,-16 26,0 -5,-37 -47,-56 -21,-9 -38,-20 -38,-24 0,-4 20,-11 45,-15 40,-5 45,-9 40,-26 -10,-32 12,-72 61,-114 39,-32 44,-40 32,-51 -10,-10 -25,-12 -58,-6 l -45,8 3,52 c 3,57 -12,71 -22,21 -15,-76 -6,-90 65,-103 20,-3 46,-17 58,-30 l 22,-24 -29,-10 c -17,-6 -34,-7 -38,-2 -21,18 -71,18 -99,0 l -29,-19 -40,32 c -56,43 -63,54 -82,114 -14,48 -29,71 -39,61 -2,-2 5,-31 17,-66 19,-59 46,-95 103,-136 11,-8 18,-16 15,-19 -7,-6 -128,-67 -134,-67 -3,0 -24,29 -47,65 -36,56 -46,65 -73,66 -17,1 -43,4 -58,8 l -26,6 24,58 25,58 -22,35 c -13,22 -18,41 -14,52 7,15 9,14 14,-6 8,-31 24,-29 26,3 0,14 14,38 29,53 16,15 26,22 22,15 -7,-14 3,-43 15,-43 5,0 9,15 9,33 0,23 11,44 40,77 34,39 39,42 40,23 0,-13 6,-23 13,-23 9,0 12,9 9,29 l -4,30 58,3 c 46,2 61,-1 67,-13 5,-9 24,-24 43,-33 z m 283.2517,-313.1627 c -0.7823,-5.1975 1.1782,-11.9559 3.3869,-15.9693 10.2398,-18.607 39.8506,-12.3176 63.3614,14.132 14,15 14,19 2,24 -14.0719,6.1564 -55.883,0.4798 -62.5029,-6.2942 -3.9786,-4.0699 -5.4654,-10.6857 -6.2454,-15.8685 z M 1485,1421 c 11,-14 30,-41 43,-59 0,0 8.4123,-10.4324 18.1155,-19.9354 9.7032,-9.503 20.6973,-18.0766 20.6973,-18.0766 0,0 -16.0989,-0.7739 -50.8128,9.012 -79.7572,22.4836 -85,34 -79,58 5,19 7,19 33,-6 14,-14 30,-22 33,-18 11,10 -43,62 -59,56 -14,-5 -26.5738,32.4101 -23.0598,49.5242 0.949,4.6216 5.6212,4.7566 11.8091,2.0875 12.3896,-5.3441 29.6671,-25.3822 52.2507,-53.6117 z m -88,-68 c -4,-3 -10,-3 -14,0 -3,4 0,7 7,7 7,0 10,-3 7,-7 z m -137,-208 c 0,-26 -14,-33 -25,-15 -9,14 1,40 15,40 5,0 10,-11 10,-25 z m 83.1947,23.1298 c 0,-5.5 -31.7429,-24.3971 -35.9357,-12.6478 -4.3118,12.0827 4.5152,15.0982 15.4681,16.1153 11.4676,1.0649 20.4676,2.0325 20.4676,-3.4675 z M 1170,1145 c 0,-8 -4,-15 -9,-15 -13,0 -22,16 -14,24 11,11 23,6 23,-9 z"
           id="path10"
           sodipodi:nodetypes="ccsccscccscssccsscscccccccssccccccscccccccccsccsccccccccssssscscccsccsscscccccccccccccsccccscccccccccccsccscssccscccccsccccsccccccccccccccccccccsscccccscccccscscccccccccccccccccscccsccccccccccccssccsccccccsccscccscsccccsscccscccsccssccssc" />
        <g
           id="g24">
          <path
             d="m 1312,1403 c 15,-15 31,-24 34,-20 10,10 -26,47 -45,47 -11,0 -8,-7 11,-27 z"
             id="path26" />
        </g>
        <g
           id="g28">
          <path
             d="m 1247,1365 c -22,-21 -25,-30 -17,-45 6,-11 18,-20 26,-20 21,0 77,57 72,73 -8,23 -52,19 -81,-8 z m 63,5 c 0,-5 -7,-10 -15,-10 -8,0 -19,-9 -25,-20 -6,-11 -16,-17 -22,-14 -7,5 -2,16 16,31 29,24 46,29 46,13 z"
             id="path30" />
        </g>
        <path
           style="fill:#ffcfab;fill-opacity:1;fill-rule:evenodd;stroke:#000000;stroke-width:1.24;stroke-linecap:butt;stroke-linejoin:miter;stroke-miterlimit:4;stroke-dasharray:none;stroke-opacity:1"
           d="m 319.59749,230.14102 c 0,0 -1.82469,1.95234 -3.91569,3.4225 -2.091,1.47017 -4.73975,2.45815 -4.73975,2.45815 0,0 9.85657,12.7417 11.29914,11.09305 1.44257,-1.64865 0.39753,-4.48379 -0.22072,-8.19326 -0.62472,-3.74826 -2.42298,-8.78044 -2.42298,-8.78044 z"
           id="path2180"
           transform="matrix(3.653849,0,0,-3.653849,0,2013.2708)"
           sodipodi:nodetypes="czcszc" />
      </g>
    </g>
    <g
       id="text3047"
       style="letter-spacing:0px;word-spacing:0px"
       font-family="Sans"
       font-size="32.0548px"
       font-style="normal"
       line-height="125%"
       font-weight="normal"
       fill="#000000"
       transform="matrix(0.44507946,0,0,0.44507946,6.4326645,3.8640471)">
      <path
         id="path3233"
         d="m 124.19,439.45 c -13.659,0 -24.324,-3.3703 -31.996,-10.111 -7.672,-6.7407 -11.508,-16.32 -11.508,-28.737 -9e-6,-9.1354 1.408,-17.583 4.224,-25.344 2.816,-7.7606 6.907,-14.523 12.273,-20.289 5.3216,-5.7206 11.852,-10.2 19.59,-13.437 7.7384,-3.2372 16.441,-4.8558 26.109,-4.856 5.8093,1e-4 11.608,0.69856 17.395,2.0954 5.7872,1.397 11.696,3.6698 17.728,6.8183 l -2.9934,15.034 h -1.1974 c -4.9226,-4.612 -10.277,-7.949 -16.065,-10.011 -5.7873,-2.062 -12.007,-3.0931 -18.659,-3.0932 -7.3173,9e-5 -13.725,1.4414 -19.224,4.3238 -5.499,2.8826 -10.133,6.7186 -13.903,11.508 -3.6808,4.7008 -6.4636,10.178 -8.3483,16.43 -1.8848,6.2529 -2.8271,12.55 -2.8271,18.892 -2.3e-5,9.5346 2.6053,16.896 7.8161,22.085 5.2107,5.1886 12.916,7.7828 23.116,7.7828 4.479,1e-5 8.6808,-0.4102 12.606,-1.2306 3.9246,-0.8204 7.6165,-1.8736 11.076,-3.1597 l 5.5877,-25.344 h -26.408 l 2.5278,-11.109 h 39.646 l -9.845,42.506 c -2.927,1.1974 -5.5656,2.2728 -7.9159,3.2262 -2.3504,0.95345 -5.2995,1.9402 -8.8472,2.9601 -3.06,0.88693 -6.2197,1.6186 -9.4791,2.1952 -3.2595,0.5765 -6.7518,0.86475 -10.477,0.86475 z" />
      <path
         id="path3235"
         d="m 226.56,439.32 c -12.55,0 -22.395,-3.2484 -29.535,-9.7452 -7.1398,-6.4968 -10.71,-15.71 -10.71,-27.639 -1e-5,-9.1354 1.3747,-17.65 4.1242,-25.544 2.7495,-7.8936 6.6963,-14.812 11.841,-20.754 5.0998,-5.8537 11.375,-10.477 18.825,-13.869 7.4502,-3.3924 15.765,-5.0887 24.945,-5.0888 5.7206,10e-5 11.131,0.69856 16.231,2.0954 5.0998,1.397 10.333,3.6033 15.699,6.6187 l -2.9934,14.9 h -0.9978 c -1.4635,-1.4634 -2.9381,-2.827 -4.4236,-4.091 -1.4857,-1.2638 -3.7141,-2.6496 -6.6853,-4.1575 -2.4391,-1.286 -5.3438,-2.3614 -8.7141,-3.2262 -3.3704,-0.86467 -7.0955,-1.297 -11.175,-1.2971 -6.2086,9e-5 -11.907,1.2972 -17.096,3.8914 -5.1886,2.5944 -9.6898,6.2197 -13.504,10.876 -3.7252,4.5234 -6.652,10.022 -8.7806,16.497 -2.1287,6.4747 -3.193,13.371 -3.193,20.688 -2e-5,9.1354 2.3725,16.242 7.1176,21.32 4.745,5.0777 11.597,7.6165 20.555,7.6165 4.2129,10e-6 8.2152,-0.47672 12.007,-1.4302 3.7916,-0.95344 7.2395,-2.1619 10.344,-3.6253 2.8825,-1.3747 5.4767,-2.816 7.7828,-4.3238 2.3059,-1.5078 4.2794,-2.9047 5.9203,-4.1908 h 0.93128 l -3.1264,15.3 c -4.6565,2.3504 -10.011,4.4679 -16.065,6.3527 -6.0534,1.8847 -12.495,2.8271 -19.324,2.8271 z" />
      <path
         id="path3237"
         d="m 321.82,439.32 c -12.55,0 -22.395,-3.2484 -29.535,-9.7452 -7.1398,-6.4968 -10.71,-15.71 -10.71,-27.639 -10e-6,-9.1354 1.3747,-17.65 4.1242,-25.544 2.7495,-7.8936 6.6963,-14.812 11.841,-20.754 5.0998,-5.8537 11.375,-10.477 18.825,-13.869 7.4502,-3.3924 15.765,-5.0887 24.945,-5.0888 5.7206,10e-5 11.131,0.69856 16.231,2.0954 5.0998,1.397 10.333,3.6033 15.699,6.6187 l -2.9934,14.9 h -0.9978 c -1.4635,-1.4634 -2.9381,-2.827 -4.4236,-4.091 -1.4857,-1.2638 -3.7141,-2.6496 -6.6852,-4.1575 -2.4392,-1.286 -5.3439,-2.3614 -8.7141,-3.2262 -3.3704,-0.86467 -7.0955,-1.297 -11.175,-1.2971 -6.2086,9e-5 -11.907,1.2972 -17.096,3.8914 -5.1886,2.5944 -9.6898,6.2197 -13.504,10.876 -3.7251,4.5234 -6.652,10.022 -8.7806,16.497 -2.1287,6.4747 -3.193,13.371 -3.193,20.688 -2e-5,9.1354 2.3725,16.242 7.1176,21.32 4.745,5.0777 11.597,7.6165 20.555,7.6165 4.2129,10e-6 8.2152,-0.47672 12.007,-1.4302 3.7916,-0.95344 7.2395,-2.1619 10.344,-3.6253 2.8825,-1.3747 5.4767,-2.816 7.7828,-4.3238 2.3059,-1.5078 4.2794,-2.9047 5.9203,-4.1908 h 0.93128 l -3.1264,15.3 c -4.6565,2.3504 -10.011,4.4679 -16.065,6.3527 -6.0534,1.8847 -12.495,2.8271 -19.324,2.8271 z" />
    </g>
    <path
       style="fill:#ffffff;fill-opacity:1;fill-rule:evenodd;stroke:#000000;stroke-width:0.463522px;stroke-linecap:butt;stroke-linejoin:miter;stroke-opacity:1"
       d="m 164.46933,106.17721 c -0.40537,-1.80688 -5.30224,1.55355 -5.36973,3.51231 -0.0675,1.95877 4.76018,5.76537 5.13331,4.05263 0.37142,-1.70556 0.63871,-5.77148 0.23642,-7.56494 z"
       id="path4122"
       sodipodi:nodetypes="czzz" />
  </g>
</svg>
